<?xml version="1.0" encoding="utf-8"?>
<!-- Generator: Adobe Illustrator 23.0.1, SVG Export Plug-In . SVG Version: 6.00 Build 0)  -->
<!DOCTYPE svg PUBLIC "-//W3C//DTD SVG 1.1//EN" "http://www.w3.org/Graphics/SVG/1.1/DTD/svg11.dtd" [
	<!ENTITY ns_extend "http://ns.adobe.com/Extensibility/1.0/">
	<!ENTITY ns_ai "http://ns.adobe.com/AdobeIllustrator/10.0/">
	<!ENTITY ns_graphs "http://ns.adobe.com/Graphs/1.0/">
	<!ENTITY ns_vars "http://ns.adobe.com/Variables/1.0/">
	<!ENTITY ns_imrep "http://ns.adobe.com/ImageReplacement/1.0/">
	<!ENTITY ns_sfw "http://ns.adobe.com/SaveForWeb/1.0/">
	<!ENTITY ns_custom "http://ns.adobe.com/GenericCustomNamespace/1.0/">
	<!ENTITY ns_adobe_xpath "http://ns.adobe.com/XPath/1.0/">
]>
<svg version="1.1" id="Calque_1" xmlns:x="&ns_extend;" xmlns:i="&ns_ai;" xmlns:graph="&ns_graphs;"
	 xmlns="http://www.w3.org/2000/svg" xmlns:xlink="http://www.w3.org/1999/xlink" x="0px" y="0px" viewBox="0 0 250 250"
	 style="enable-background:new 0 0 250 250;" xml:space="preserve">
<style type="text/css">
	.st0{fill:#FB4F14;}
</style>
<metadata>
	<sfw  xmlns="&ns_sfw;">
		<slices></slices>
		<sliceSourceBounds  bottomLeftOrigin="true" height="250" width="250" x="0" y="0"></sliceSourceBounds>
	</sfw>
</metadata>
<path class="st0" d="M83.1,101.2v93.4h25.3V75.8H87.7c-11.8,8.9-26.8,16.8-39.2,22.1l8.1,18.2C64.5,112.5,75.9,106.9,83.1,101.2z"/>
<path class="st0" d="M156.1,101.2v93.4h25.3V75.8h-20.7c-11.8,8.9-26.8,16.8-39.2,22.1l8.1,18.2
	C137.4,112.5,148.8,106.9,156.1,101.2z"/>
<path class="st0" d="M233,125c0,59.4-48.6,107.7-107.7,107.7c-59.4,0-108-48-108-107.7c0-24.8,8.5-47.7,22.7-66H19
	C7,78.2,0,100.8,0,125c0,69.2,56.3,125,125.3,125c68.9,0,124.7-55.5,124.7-125c0-24.2-7.2-46.8-19.3-66h-20.3
	C224.5,77.2,233,100.1,233,125z"/>
<g>
	<polygon class="st0" points="55.9,33.7 36.8,33.7 36.8,21.7 53.4,21.7 53.4,16 36.8,16 36.8,6 55.3,6 55.3,0 29.3,0 29.3,39.6 
		55.9,39.6 	"/>
	<polygon class="st0" points="67.2,39.6 73.9,30.1 80.4,39.6 88.9,39.6 78.1,25.3 88.1,12 80.4,12 74.2,20.7 68.3,12 59.9,12 
		70,25.6 59.4,39.6 	"/>
	<path class="st0" d="M100.6,40c0.6,0.1,1.3,0.1,2,0.2c0.7,0.1,1.4,0.1,2.2,0.1c4.9,0,8.7-1.4,11.4-4.1c2.7-2.7,4-6.6,4-11.6
		c0-1.8-0.2-3.6-0.7-5.2c-0.4-1.6-1.1-3-2-4.2s-2.1-2.1-3.4-2.8c-1.4-0.7-3-1.1-4.8-1.1c-2.1,0-3.8,0.6-5.2,1.7
		c-1.4,1.1-2.5,2.5-3.2,4.1h-0.1V12h-7.4v39.6h7.4V40H100.6z M100.6,26.1c0-1.3,0.1-2.5,0.4-3.6c0.3-1.2,0.8-2.2,1.4-3
		c0.5-0.6,1.1-1.1,1.8-1.5c0.7-0.3,1.6-0.5,2.7-0.5s2,0.2,2.7,0.6s1.3,1,1.7,1.7c0.4,0.7,0.7,1.5,0.9,2.4c0.2,0.9,0.3,1.9,0.3,2.9
		c0,1.5-0.1,2.8-0.3,4.1c-0.2,1.2-0.6,2.3-1.2,3.2s-1.3,1.6-2.3,2.1c-0.9,0.5-2.1,0.7-3.6,0.7c-1.6,0-3.1-0.2-4.5-0.7V26.1z"/>
	<path class="st0" d="M134.2,24.8c0-1.9,0.5-3.5,1.5-4.5c0.8-0.9,2-1.4,3.3-1.5c1.4-0.1,2.9,0,4.5,0.4l1.6-7.7
		c-2.6-0.3-4.8,0-6.5,0.9s-3.2,2.4-4.3,4.7h-0.1V12h-7.4v27.6h7.4V24.8z"/>
	<path class="st0" d="M151.3,36.5c1.3,1.2,2.8,2.1,4.6,2.8c1.8,0.6,3.8,1,6.1,1c1.7,0,3.4-0.1,4.9-0.4c1.6-0.3,3.3-0.8,5.3-1.7
		l-1.9-5.2c-1.3,0.6-2.5,1.1-3.7,1.4c-1.2,0.3-2.5,0.4-4,0.4c-2.8,0-4.8-0.7-6-2.2c-1.3-1.5-1.9-3.5-1.9-6.1h18.6v-2.7
		c0-1.7-0.2-3.3-0.6-4.9c-0.4-1.5-1.1-2.8-2-3.9s-2.1-2-3.6-2.7s-3.3-1-5.4-1c-2.4,0-4.4,0.4-6.2,1.1c-1.8,0.8-3.3,1.8-4.5,3.1
		s-2.1,2.9-2.7,4.7c-0.6,1.8-0.9,3.8-0.9,5.9c0,2.2,0.3,4.2,1,6C149.1,33.8,150.1,35.3,151.3,36.5z M157.4,17.9
		c1.1-1,2.5-1.5,4.3-1.5c0.8,0,1.5,0.2,2.1,0.5s1.1,0.8,1.4,1.3c0.4,0.5,0.6,1.1,0.8,1.7s0.3,1.3,0.3,1.9h-11.1
		C155.6,20.2,156.3,18.9,157.4,17.9z"/>
	<path class="st0" d="M191.5,34.2c-0.8,0.5-1.8,0.7-2.9,0.7c-1.4,0-2.8-0.2-4.2-0.7s-2.7-1.2-4-2.2l-2.8,5.6c2,1.1,3.9,1.9,5.7,2.2
		s3.6,0.5,5.5,0.5c1.5,0,3-0.2,4.4-0.6c1.4-0.4,2.6-1,3.6-1.8s1.9-1.7,2.5-2.8s0.9-2.3,0.9-3.6c0-1.3-0.2-2.4-0.6-3.2
		c-0.4-0.9-1-1.6-1.7-2.2s-1.5-1-2.5-1.4c-0.9-0.4-1.9-0.7-2.9-0.9l-3.1-0.9c-0.8-0.2-1.6-0.5-2.3-1c-0.7-0.4-1-1.1-1-2.1
		c0-0.5,0.1-1,0.4-1.4c0.2-0.4,0.6-0.7,0.9-0.9c0.4-0.2,0.8-0.4,1.3-0.5s0.9-0.1,1.4-0.1c1.3,0,2.4,0.2,3.3,0.5
		c0.9,0.3,1.9,0.8,2.9,1.5l2.8-5.4c-1.4-0.7-2.8-1.2-4.2-1.5c-1.4-0.4-3.1-0.6-5.1-0.6c-1.2,0-2.5,0.1-3.8,0.4
		c-1.3,0.3-2.5,0.8-3.6,1.5s-2,1.6-2.7,2.7s-1.1,2.4-1.1,4.1c0,1.3,0.2,2.3,0.6,3.2c0.4,0.9,1,1.6,1.7,2.2s1.5,1.1,2.4,1.5
		s1.9,0.7,2.9,1l3.5,1c1.1,0.3,1.9,0.7,2.4,1.1c0.4,0.5,0.6,1.1,0.6,1.8C192.8,33,192.4,33.7,191.5,34.2z"/>
	<path class="st0" d="M217.7,34.2c-0.8,0.5-1.8,0.7-2.9,0.7c-1.4,0-2.8-0.2-4.2-0.7s-2.7-1.2-4-2.2l-2.8,5.6c2,1.1,3.9,1.9,5.7,2.2
		s3.6,0.5,5.5,0.5c1.5,0,3-0.2,4.4-0.6c1.4-0.4,2.6-1,3.6-1.8s1.9-1.7,2.5-2.8s0.9-2.3,0.9-3.6c0-1.3-0.2-2.4-0.6-3.2
		c-0.4-0.9-1-1.6-1.7-2.2s-1.5-1-2.5-1.4c-0.9-0.4-1.9-0.7-2.9-0.9l-3.1-0.9c-0.8-0.2-1.6-0.5-2.3-1c-0.7-0.4-1-1.1-1-2.1
		c0-0.5,0.1-1,0.4-1.4c0.2-0.4,0.6-0.7,0.9-0.9c0.4-0.2,0.8-0.4,1.3-0.5s0.9-0.1,1.4-0.1c1.3,0,2.4,0.2,3.3,0.5
		c0.9,0.3,1.9,0.8,2.9,1.5l2.8-5.4c-1.4-0.7-2.8-1.2-4.2-1.5c-1.4-0.4-3.1-0.6-5.1-0.6c-1.2,0-2.5,0.1-3.8,0.4
		c-1.3,0.3-2.5,0.8-3.6,1.5s-2,1.6-2.7,2.7s-1.1,2.4-1.1,4.1c0,1.3,0.2,2.3,0.6,3.2c0.4,0.9,1,1.6,1.7,2.2s1.5,1.1,2.4,1.5
		s1.9,0.7,2.9,1l3.5,1c1.1,0.3,1.9,0.7,2.4,1.1c0.4,0.5,0.6,1.1,0.6,1.8C219,33,218.6,33.7,217.7,34.2z"/>
</g>
</svg>
