<?xml version="1.0" encoding="utf-8"?>
<!-- Generator: Adobe Illustrator 23.0.1, SVG Export Plug-In . SVG Version: 6.00 Build 0)  -->
<!DOCTYPE svg PUBLIC "-//W3C//DTD SVG 1.1//EN" "http://www.w3.org/Graphics/SVG/1.1/DTD/svg11.dtd" [
	<!ENTITY ns_extend "http://ns.adobe.com/Extensibility/1.0/">
	<!ENTITY ns_ai "http://ns.adobe.com/AdobeIllustrator/10.0/">
	<!ENTITY ns_graphs "http://ns.adobe.com/Graphs/1.0/">
	<!ENTITY ns_vars "http://ns.adobe.com/Variables/1.0/">
	<!ENTITY ns_imrep "http://ns.adobe.com/ImageReplacement/1.0/">
	<!ENTITY ns_sfw "http://ns.adobe.com/SaveForWeb/1.0/">
	<!ENTITY ns_custom "http://ns.adobe.com/GenericCustomNamespace/1.0/">
	<!ENTITY ns_adobe_xpath "http://ns.adobe.com/XPath/1.0/">
]>
<svg version="1.1" id="Livello_1" xmlns:x="&ns_extend;" xmlns:i="&ns_ai;" xmlns:graph="&ns_graphs;"
	 xmlns="http://www.w3.org/2000/svg" xmlns:xlink="http://www.w3.org/1999/xlink" x="0px" y="0px" viewBox="0 0 249.6 250"
	 style="enable-background:new 0 0 249.6 250;" xml:space="preserve">
<style type="text/css">
	.st0{fill-rule:evenodd;clip-rule:evenodd;fill:#079E4E;}
</style>
<metadata>
	<sfw  xmlns="&ns_sfw;">
		<slices></slices>
		<sliceSourceBounds  bottomLeftOrigin="true" height="250" width="249.6" x="113.7" y="112.7"></sliceSourceBounds>
	</sfw>
</metadata>
<g>
	<path class="st0" d="M124.8,250C55.8,250,0,194.2,0,125.2C0,55.8,55.8,0,124.8,0c69,0,124.8,55.8,124.8,125.2
		C249.6,194.2,193.8,250,124.8,250 M124.8,18.6c-58.6,0-106.2,47.6-106.2,106.6c0,58.5,47.7,106.2,106.2,106.2
		c58.5,0,106.2-47.7,106.2-106.2C231,66.2,183.3,18.6,124.8,18.6z"/>
	<path class="st0" d="M179.4,124.7c0-54.9-48.4-55.7-70.8-55.7h-34v116.7h32.9C143.2,185.7,179.4,175.7,179.4,124.7 M152.8,126.3
		c0,30.6-17.2,39.2-39.7,39.2h-12.6V89.3h11.8C128.1,89.3,152.8,93.6,152.8,126.3z"/>
</g>
</svg>
