<?xml version="1.0" encoding="utf-8"?>
<!-- Generator: Adobe Illustrator 23.0.1, SVG Export Plug-In . SVG Version: 6.00 Build 0)  -->
<!DOCTYPE svg PUBLIC "-//W3C//DTD SVG 1.1//EN" "http://www.w3.org/Graphics/SVG/1.1/DTD/svg11.dtd" [
	<!ENTITY ns_extend "http://ns.adobe.com/Extensibility/1.0/">
	<!ENTITY ns_ai "http://ns.adobe.com/AdobeIllustrator/10.0/">
	<!ENTITY ns_graphs "http://ns.adobe.com/Graphs/1.0/">
	<!ENTITY ns_vars "http://ns.adobe.com/Variables/1.0/">
	<!ENTITY ns_imrep "http://ns.adobe.com/ImageReplacement/1.0/">
	<!ENTITY ns_sfw "http://ns.adobe.com/SaveForWeb/1.0/">
	<!ENTITY ns_custom "http://ns.adobe.com/GenericCustomNamespace/1.0/">
	<!ENTITY ns_adobe_xpath "http://ns.adobe.com/XPath/1.0/">
]>
<svg version="1.1" id="Livello_1" xmlns:x="&ns_extend;" xmlns:i="&ns_ai;" xmlns:graph="&ns_graphs;"
	 xmlns="http://www.w3.org/2000/svg" xmlns:xlink="http://www.w3.org/1999/xlink" x="0px" y="0px" viewBox="0 0 249.5 250"
	 style="enable-background:new 0 0 249.5 250;" xml:space="preserve">
<style type="text/css">
	.st0{fill-rule:evenodd;clip-rule:evenodd;fill:#DC5AB4;}
</style>
<metadata>
	<sfw  xmlns="&ns_sfw;">
		<slices></slices>
		<sliceSourceBounds  bottomLeftOrigin="true" height="250" width="249.5" x="110.8" y="107.7"></sliceSourceBounds>
	</sfw>
</metadata>
<path class="st0" d="M124.7,250C55.8,250,0,194.2,0,125.2C0,55.8,55.8,0,124.7,0c69,0,124.7,55.8,124.7,125.2
	C249.5,194.2,193.7,250,124.7,250 M124.7,18.6c-58.5,0-106.2,47.6-106.2,106.6c0,58.6,47.6,106.2,106.2,106.2
	c58.5,0,106.2-47.6,106.2-106.2C230.9,66.2,183.3,18.6,124.7,18.6z"/>
<polyline class="st0" points="162.3,186.3 162.3,165.3 113.6,165.3 113.6,134.7 158.2,134.7 158.2,114.6 113.6,114.6 113.6,90.6 
	159.8,90.6 159.8,69.6 87.6,69.6 87.6,186.3 162.3,186.3 "/>
</svg>
