<?xml version="1.0" encoding="utf-8"?>
<!-- Generator: Adobe Illustrator 23.0.1, SVG Export Plug-In . SVG Version: 6.00 Build 0)  -->
<!DOCTYPE svg PUBLIC "-//W3C//DTD SVG 1.1//EN" "http://www.w3.org/Graphics/SVG/1.1/DTD/svg11.dtd" [
	<!ENTITY ns_extend "http://ns.adobe.com/Extensibility/1.0/">
	<!ENTITY ns_ai "http://ns.adobe.com/AdobeIllustrator/10.0/">
	<!ENTITY ns_graphs "http://ns.adobe.com/Graphs/1.0/">
	<!ENTITY ns_vars "http://ns.adobe.com/Variables/1.0/">
	<!ENTITY ns_imrep "http://ns.adobe.com/ImageReplacement/1.0/">
	<!ENTITY ns_sfw "http://ns.adobe.com/SaveForWeb/1.0/">
	<!ENTITY ns_custom "http://ns.adobe.com/GenericCustomNamespace/1.0/">
	<!ENTITY ns_adobe_xpath "http://ns.adobe.com/XPath/1.0/">
]>
<svg version="1.1" id="Livello_1" xmlns:x="&ns_extend;" xmlns:i="&ns_ai;" xmlns:graph="&ns_graphs;"
	 xmlns="http://www.w3.org/2000/svg" xmlns:xlink="http://www.w3.org/1999/xlink" x="0px" y="0px" viewBox="0 0 248.4 248.9"
	 style="enable-background:new 0 0 248.4 248.9;" xml:space="preserve">
<style type="text/css">
	.st0{fill-rule:evenodd;clip-rule:evenodd;fill:#DC9600;}
</style>
<metadata>
	<sfw  xmlns="&ns_sfw;">
		<slices></slices>
		<sliceSourceBounds  bottomLeftOrigin="true" height="248.9" width="248.4" x="111.3" y="110.7"></sliceSourceBounds>
	</sfw>
</metadata>
<title>ligne</title>
<path class="st0" d="M124.2,248.9C55.5,248.9,0,193.3,0,124.7C0,55.6,55.5,0,124.2,0c68.7,0,124.2,55.6,124.2,124.7
	C248.4,193.3,192.9,248.9,124.2,248.9 M124.2,18.6c-58.3,0-105.7,47.4-105.7,106.1c0,58.3,47.4,105.7,105.7,105.7
	c58.3,0,105.7-47.4,105.7-105.7C229.9,65.9,182.5,18.6,124.2,18.6z"/>
<path class="st0" d="M169.8,179.4l-6.6-19.9c-5.7,3.5-14.1,6.3-23.3,6.3c-18.3,0-34.2-14.1-34.2-38.3c0-18.4,8.2-39.5,32.4-39.5
	c7.4,0,15.8,2.2,23.4,6.3l8.4-21.2c-8.4-3.8-18.9-6.7-33.2-6.7c-39,0-57.6,29.4-57.6,61.9c0,34.2,22.2,59.4,57.6,59.4
	C148,187.5,161.4,183.7,169.8,179.4"/>
</svg>
